HIERARCHY
ROOT Hips
{
	OFFSET 54.587002 -14.769414 85.767197
	CHANNELS 6 Xposition Yposition Zposition Xrotation Yrotation Zrotation
	JOINT spine
	{
		OFFSET 0.000000 -0.367607 6.392601
		CHANNELS 3 Xrotation Yrotation Zrotation
		JOINT spine1
		{
			OFFSET 0.000000 -0.000001 9.176109
			CHANNELS 3 Xrotation Yrotation Zrotation
			JOINT spine2
			{
				OFFSET 0.000000 -0.000002 8.792381
				CHANNELS 3 Xrotation Yrotation Zrotation
				JOINT Neck
				{
					OFFSET 0.000000 -1.076242 22.573708
					CHANNELS 3 Xrotation Yrotation Zrotation
					JOINT Head
					{
						OFFSET 0.000000 -0.000002 6.820114
						CHANNELS 3 Xrotation Yrotation Zrotation
						End Site
						{
							OFFSET 0.000000 5.444267 16.508499
						}
					}
				}
				JOINT RightShoulder
				{
					OFFSET -3.702209 0.515507 9.495087
					CHANNELS 3 Xrotation Yrotation Zrotation
					JOINT RightArm
					{
						OFFSET 0.000000 -0.000003 12.453697
						CHANNELS 3 Xrotation Yrotation Zrotation
						JOINT RightArmRoll
						{
							OFFSET 0.000000 -0.000001 6.286865
							CHANNELS 3 Xrotation Yrotation Zrotation
							JOINT RightForeArm
							{
								OFFSET 0.000000 -0.000003 18.311401
								CHANNELS 3 Xrotation Yrotation Zrotation
								JOINT RightForeArmRoll
								{
									OFFSET 0.000000 -0.000001 7.054825
									CHANNELS 3 Xrotation Yrotation Zrotation
									JOINT RightHand
									{
										OFFSET 0.000000 -0.000002 14.157501
										CHANNELS 3 Xrotation Yrotation Zrotation
										End Site
										{
											OFFSET 0.000000 0.000000 0.100006
										}
									}
								}
							}
						}
					}
				}
				JOINT LeftShoulder
				{
					OFFSET 3.702209 0.515507 9.495087
					CHANNELS 3 Xrotation Yrotation Zrotation
					JOINT LeftArm
					{
						OFFSET 0.000000 -0.000003 12.453697
						CHANNELS 3 Xrotation Yrotation Zrotation
						JOINT LeftArmRoll
						{
							OFFSET 0.000000 -0.000001 6.286865
							CHANNELS 3 Xrotation Yrotation Zrotation
							JOINT LeftForeArm
							{
								OFFSET 0.000000 -0.000003 18.311401
								CHANNELS 3 Xrotation Yrotation Zrotation
								JOINT LeftForeArmRoll
								{
									OFFSET 0.000000 -0.000001 7.054825
									CHANNELS 3 Xrotation Yrotation Zrotation
									JOINT LeftHand
									{
										OFFSET 0.000000 -0.000002 14.157501
										CHANNELS 3 Xrotation Yrotation Zrotation
										End Site
										{
											OFFSET 0.000000 0.000000 0.100006
										}
									}
								}
							}
						}
					}
				}
			}
		}
	}
	JOINT RightUpLeg
	{
		OFFSET -5.666161 0.871611 -1.039032
		CHANNELS 3 Xrotation Yrotation Zrotation
		JOINT RightUpLegRoll
		{
			OFFSET 0.000000 -0.000003 16.600502
			CHANNELS 3 Xrotation Yrotation Zrotation
			JOINT RightLeg
			{
				OFFSET 0.000000 0.000003 -20.557198
				CHANNELS 3 Xrotation Yrotation Zrotation
				JOINT RightLegRoll
				{
					OFFSET 0.000000 -0.000003 20.624397
					CHANNELS 3 Xrotation Yrotation Zrotation
					JOINT RightFoot
					{
						OFFSET 0.000000 -0.000003 17.166405
						CHANNELS 3 Xrotation Yrotation Zrotation
						JOINT RightToeBase
						{
							OFFSET 0.000000 -0.000003 14.350204
							CHANNELS 3 Xrotation Yrotation Zrotation
							End Site
							{
								OFFSET 0.006081 0.801060 6.949707
							}
						}
					}
				}
			}
		}
	}
	JOINT LeftUpLeg
	{
		OFFSET 5.666161 0.871611 -1.039032
		CHANNELS 3 Xrotation Yrotation Zrotation
		JOINT LeftUpLegRoll
		{
			OFFSET 0.000000 -0.000003 16.600601
			CHANNELS 3 Xrotation Yrotation Zrotation
			JOINT LeftLeg
			{
				OFFSET 0.000000 -0.000004 20.557098
				CHANNELS 3 Xrotation Yrotation Zrotation
				JOINT LeftLegRoll
				{
					OFFSET 0.000000 -0.000003 20.815094
					CHANNELS 3 Xrotation Yrotation Zrotation
					JOINT LeftFoot
					{
						OFFSET 0.000000 -0.000003 16.975708
						CHANNELS 3 Xrotation Yrotation Zrotation
						JOINT LeftToeBase
						{
							OFFSET 0.000000 -0.000003 14.350204
							CHANNELS 3 Xrotation Yrotation Zrotation
							End Site
							{
								OFFSET -0.027260 0.801060 6.949707
							}
						}
					}
				}
			}
		}
	}
}
MOTION
Frames: 6
Frame Time: 0.041667
54.732502 -15.213516 85.759598 -3.209018 1.755714 -6.064008 -1.201728 0.215610 -0.096274 1.593896 0.438366 -0.194561 3.238974 0.436002 -0.199797 13.586991 -7.315448 3.605536 8.654221 5.182969 3.478548 -18.180485 -27.204876 -21.364528 -115.319903 -137.161127 -71.845216 -0.000002 0.000000 -0.000002 114.397711 -3.673613 8.688451 0.000003 -0.000003 -3.002334 -5.000209 -7.998703 0.000166 2.343449 55.766517 -3.210278 -34.527665 115.027202 30.022670 -0.000001 0.000002 0.000015 3.817868 9.736166 0.223151 -0.000003 0.000000 3.000000 -5.000235 7.998833 -0.000143 1.406029 -175.236440 1.179825 -179.999991 0.000004 -1.126007 174.707783 -3.170452 -0.527524 0.000004 0.000001 0.048990 68.778236 6.906172 2.110229 25.456959 -7.355617 0.000012 2.850779 173.726708 -0.799153 -0.000005 -0.000005 -1.139010 -6.774395 1.208933 0.564592 -0.000004 -0.000002 -0.097418 70.545377 -6.694623 -2.551687 25.457971 7.355616 -0.001600 
54.737904 -15.210716 85.756294 -3.219403 1.756296 -6.070117 -1.198699 0.216551 -0.095012 1.600997 0.441018 -0.192745 3.246086 0.438676 -0.198014 13.564788 -7.279190 3.603199 8.655881 5.122293 3.484222 -18.183885 -27.260666 -21.369753 -115.275903 -137.157684 -71.651212 -0.000002 -0.000000 -0.000003 114.068667 -3.694592 8.692883 0.000003 -0.000004 -3.002330 -5.000212 -7.998698 0.000166 2.359987 55.777394 -3.228406 -34.555781 115.030044 30.054075 0.000000 0.000003 0.000015 3.820570 9.737913 0.222946 -0.000002 0.000000 3.000001 -5.000232 7.998833 -0.000144 1.412180 -175.231454 1.187038 -179.999991 0.000004 -1.126005 174.707524 -3.177429 -0.527189 0.000004 0.000001 0.048991 68.778236 6.906140 2.110722 25.456955 -7.355614 0.000011 2.859105 173.730752 -0.796436 -0.000005 -0.000005 -1.138880 -6.777827 1.205170 0.564391 -0.000004 -0.000003 -0.097511 70.546852 -6.694288 -2.552441 25.457964 7.355617 -0.001600 
54.744205 -15.221918 85.760201 -3.229399 1.757376 -6.076458 -1.195765 0.217473 -0.093827 1.607898 0.443566 -0.191038 3.252977 0.441245 -0.196338 13.542168 -7.245447 3.601044 8.657272 5.066388 3.489521 -18.186562 -27.317441 -21.374088 -115.232627 -137.154310 -71.456189 -0.000003 -0.000001 -0.000002 113.732492 -3.715194 8.695892 -0.000000 -0.000004 -3.002326 -5.000212 -7.998700 0.000166 2.374483 55.787520 -3.244204 -34.583485 115.032803 30.085276 -0.000000 0.000002 0.000014 3.823623 9.739666 0.222726 -0.000003 0.000000 3.000000 -5.000232 7.998833 -0.000142 1.418019 -175.227465 1.193713 -179.999991 0.000005 -1.126007 174.707278 -3.184392 -0.525852 0.000004 0.000001 0.048989 68.778215 6.906103 2.111216 25.456953 -7.355615 0.000011 2.866999 173.733785 -0.794279 -0.000005 -0.000004 -1.138760 -6.781458 1.201626 0.564206 -0.000003 -0.000003 -0.097601 70.548320 -6.693916 -2.553289 25.457963 7.355615 -0.001600 
54.709503 -15.219015 85.762901 -3.238867 1.759147 -6.083106 -1.192958 0.218379 -0.092759 1.614499 0.445996 -0.189499 3.259578 0.443693 -0.194828 13.519259 -7.215171 3.599195 8.658362 5.016688 3.494432 -18.188141 -27.375629 -21.376873 -115.190512 -137.150923 -71.261126 -0.000001 0.000000 -0.000004 113.389466 -3.735272 8.696446 0.000004 -0.000003 -3.002331 -5.000214 -7.998700 0.000166 2.386317 55.796498 -3.256973 -34.609381 115.036204 30.114990 -0.000001 0.000002 0.000015 3.827155 9.741480 0.222470 -0.000003 -0.000000 3.000000 -5.000234 7.998834 -0.000142 1.423452 -175.224473 1.199528 -179.999991 0.000005 -1.126006 174.707114 -3.190363 -0.525402 0.000004 0.000001 0.048991 68.778215 6.906068 2.111708 25.456957 -7.355616 0.000010 2.874268 173.735834 -0.792903 -0.000005 -0.000005 -1.138630 -6.785501 1.198399 0.564058 -0.000003 -0.000003 -0.097692 70.549953 -6.693382 -2.554599 25.457966 7.355615 -0.001600 
54.718105 -15.205215 85.753601 -3.247697 1.761808 -6.090144 -1.190289 0.219273 -0.091851 1.620719 0.448291 -0.188185 3.265809 0.446003 -0.193542 13.495986 -7.189297 3.597771 8.659107 4.974606 3.498949 -18.188181 -27.435388 -21.377432 -115.150023 -137.147439 -71.067278 -0.000002 0.000000 -0.000001 113.040006 -3.754767 8.693548 0.000005 -0.000002 -3.002316 -5.000212 -7.998701 0.000167 2.394826 55.804032 -3.266021 -34.633051 115.040180 30.142964 0.000001 0.000003 0.000014 3.831265 9.743451 0.222170 -0.000003 0.000000 2.999999 -5.000233 7.998832 -0.000143 1.428395 -175.222479 1.204190 -179.999991 0.000004 -1.126007 174.706991 -3.195341 -0.524873 0.000004 0.000001 0.048991 68.778304 6.906037 2.112097 25.456952 -7.355617 0.000010 2.880732 173.736858 -0.792512 -0.000005 -0.000004 -1.138510 -6.790155 1.195558 0.563966 -0.000004 -0.000003 -0.097783 70.551756 -6.692754 -2.556083 25.457964 7.355615 -0.001600 
54.664906 -15.212515 85.754295 -3.255754 1.765548 -6.097642 -1.187798 0.220158 -0.091140 1.626490 0.450434 -0.187154 3.271570 0.448157 -0.192538 13.472677 -7.168763 3.596933 8.659480 4.941577 3.503035 -18.186417 -27.497141 -21.375249 -115.111733 -137.143860 -70.875739 -0.000001 -0.000001 -0.000005 112.684659 -3.772780 8.688035 0.000003 -0.000004 -3.002322 -5.000209 -7.998701 0.000166 2.399385 55.809544 -3.270644 -34.653897 115.044564 30.168826 -0.000000 0.000003 0.000015 3.836080 9.745642 0.221802 -0.000005 0.000000 2.999999 -5.000230 7.998831 -0.000143 1.432752 -175.222493 1.207334 -179.999991 0.000005 -1.126007 174.706909 -3.200318 -0.524339 0.000004 0.000001 0.048990 68.778297 6.906003 2.112492 25.456953 -7.355616 0.000011 2.886181 173.735902 -0.793375 -0.000005 -0.000005 -1.138390 -6.795640 1.193200 0.563952 -0.000004 -0.000003 -0.097872 70.553826 -6.691965 -2.558122 25.457966 7.355616 -0.001600 
